HIERARCHY
ROOT Hips
{
	OFFSET 0.000000 0.000000 0.000000
	CHANNELS 6 Xposition Yposition Zposition Zrotation Yrotation Xrotation 
	JOINT LHipJoint
	{
		OFFSET 0.000000 0.000000 0.000000
		CHANNELS 3 Zrotation Yrotation Xrotation
		JOINT LeftUpLeg
		{
			OFFSET 1.363060 -1.794630 0.839290
			CHANNELS 3 Zrotation Yrotation Xrotation
			JOINT LeftLeg
			{
				OFFSET 2.448110 -6.726130 0.000000
				CHANNELS 3 Zrotation Yrotation Xrotation
				JOINT LeftFoot
				{
					OFFSET 2.562200 -7.039590 0.000000
					CHANNELS 3 Zrotation Yrotation Xrotation
					JOINT LeftToeBase
					{
						OFFSET 0.157640 -0.433110 2.322550
						CHANNELS 3 Zrotation Yrotation Xrotation
						End Site
						{
							OFFSET 0.000000 0.000000 0.000000
						}
					}
				}
			}
		}
	}
	JOINT RHipJoint
	{
		OFFSET 0.000000 0.000000 0.000000
		CHANNELS 3 Zrotation Yrotation Xrotation
		JOINT RightUpLeg
		{
			OFFSET -1.305520 -1.794630 0.839290
			CHANNELS 3 Zrotation Yrotation Xrotation
			JOINT RightLeg
			{
				OFFSET -2.542530 -6.985550 0.000000
				CHANNELS 3 Zrotation Yrotation Xrotation
				JOINT RightFoot
				{
					OFFSET -2.568260 -7.056230 0.000000
					CHANNELS 3 Zrotation Yrotation Xrotation
					JOINT RightToeBase
					{
						OFFSET -0.164730 -0.452590 2.363150
						CHANNELS 3 Zrotation Yrotation Xrotation
						End Site
						{
							OFFSET 0.000000 0.000000 0.000000
						}
					}
				}
			}
		}
	}
	JOINT LowerBack
	{
		OFFSET 0.000000 0.000000 0.000000
		CHANNELS 3 Zrotation Yrotation Xrotation
		JOINT Spine
		{
			OFFSET 0.028270 2.035590 -0.193380
			CHANNELS 3 Zrotation Yrotation Xrotation
			JOINT Spine1
			{
				OFFSET 0.056720 2.048850 -0.042750
				CHANNELS 3 Zrotation Yrotation Xrotation
				JOINT Neck
				{
					OFFSET 0.000000 0.000000 0.000000
					CHANNELS 3 Zrotation Yrotation Xrotation
					JOINT Neck1
					{
						OFFSET -0.054170 1.746240 0.172020
						CHANNELS 3 Zrotation Yrotation Xrotation
						JOINT Head
						{
							OFFSET 0.104070 1.761360 -0.123970
							CHANNELS 3 Zrotation Yrotation Xrotation
							End Site
							{
								OFFSET 0.000000 0.000000 0.000000
							}
						}
					}
				}
				JOINT LeftShoulder
				{
					OFFSET 0.000000 0.000000 0.000000
					CHANNELS 3 Zrotation Yrotation Xrotation
					JOINT LeftArm
					{
						OFFSET 3.362410 1.200890 -0.311210
						CHANNELS 3 Zrotation Yrotation Xrotation
						JOINT LeftForeArm
						{
							OFFSET 4.983000 -0.000000 -0.000000
							CHANNELS 3 Zrotation Yrotation Xrotation
							JOINT LeftHand
							{
								OFFSET 3.483560 -0.000000 -0.000000
								CHANNELS 3 Zrotation Yrotation Xrotation
								JOINT LeftFingerBase
								{
									OFFSET 0.000000 0.000000 0.000000
									CHANNELS 3 Zrotation Yrotation Xrotation
									JOINT LeftHandIndex1
									{
										OFFSET 0.715260 -0.000000 -0.000000
										CHANNELS 3 Zrotation Yrotation Xrotation
										End Site
										{
											OFFSET 0.000000 0.000000 0.000000
										}
									}
								}
								JOINT LThumb
								{
									OFFSET 0.000000 0.000000 0.000000
									CHANNELS 3 Zrotation Yrotation Xrotation
									End Site
									{
										OFFSET 0.000000 0.000000 0.000000
									}
								}
							}
						}
					}
				}
				JOINT RightShoulder
				{
					OFFSET 0.000000 0.000000 0.000000
					CHANNELS 3 Zrotation Yrotation Xrotation
					JOINT RightArm
					{
						OFFSET -3.136600 1.374050 -0.404650
						CHANNELS 3 Zrotation Yrotation Xrotation
						JOINT RightForeArm
						{
							OFFSET -5.241900 -0.000000 -0.000000
							CHANNELS 3 Zrotation Yrotation Xrotation
							JOINT RightHand
							{
								OFFSET -3.444170 -0.000000 -0.000000
								CHANNELS 3 Zrotation Yrotation Xrotation
								JOINT RightFingerBase
								{
									OFFSET 0.000000 0.000000 0.000000
									CHANNELS 3 Zrotation Yrotation Xrotation
									JOINT RightHandIndex1
									{
										OFFSET -0.622530 -0.000000 -0.000000
										CHANNELS 3 Zrotation Yrotation Xrotation
										End Site
										{
											OFFSET 0.000000 0.000000 0.000000
										}
									}
								}
								JOINT RThumb
								{
									OFFSET 0.000000 0.000000 0.000000
									CHANNELS 3 Zrotation Yrotation Xrotation
									End Site
									{
										OFFSET 0.000000 0.000000 0.000000
									}
								}
							}
						}
					}
				}
			}
		}
	}
}
MOTION
Frames: 6
Frame Time: 0.008333
-1.805608 18.247266 5.409069 -7.793895 -9.324682 -4.861112 3.202584 4.951793 4.374437 -4.802725 -2.566976 -3.775942 1.642503 7.645035 25.933393 -1.318931 8.355677 -11.875744 9.152200 -16.904700 -56.615100 -1.515073 -4.063736 3.518548 2.828435 2.013160 -1.963885 0.065506 0.716411 1.440176 0.292378 -1.016926 6.154252 0.000000 0.000000 0.000000 5.511259 -0.607614 5.108487 16.977655 -5.322953 38.095553 -4.742091 -1.057024 -12.792279 -3.733548 -10.559440 -10.583043 16.082532 -20.731978 42.510756 4.038600 -6.961300 17.600100 3.376728 -5.627980 -1.215635 -62.650779 39.339078 74.656978 110.295011 -52.750512 -76.659691 -0.279229 1.349901 5.265397 10.306763 -56.078619 -9.027200 -7.125000 0.000000 0.000000 -15.683700 -26.125100 21.536800 -8.505362 6.273651 -0.009681 41.739295 26.329322 19.246299 -146.119423 38.837225 -105.913583 -0.787675 -0.219850 -9.304096 11.660576 -25.003061 -5.308400 7.125000 0.000000 0.000000 40.866800 -50.151700 -6.091700 
-1.778126 18.242261 5.410149 -7.961659 -9.307366 -4.806510 3.166893 4.960757 4.406345 -4.733789 -2.759661 -3.681107 1.598234 7.592089 25.754911 -1.356940 8.584653 -12.218667 9.159500 -16.909300 -56.640200 -1.544160 -4.070670 3.529155 2.820124 2.015986 -1.955424 0.065923 0.722024 1.442080 0.293864 -1.011283 6.156004 0.000000 0.000000 0.000000 5.512094 -0.563981 4.947307 16.529418 -5.230161 38.383893 -4.593748 -1.053717 -12.699519 -3.585605 -10.493024 -10.605775 15.869699 -20.582361 42.487656 3.976000 -6.924100 17.568100 3.403045 -5.550412 -1.221903 -62.615118 38.947398 74.578888 110.114160 -52.803314 -76.486430 -0.269915 1.347717 5.377571 10.327994 -56.457747 -9.077000 -7.125000 0.000000 0.000000 -15.771100 -26.478900 21.703200 -8.392782 6.123827 -0.040930 40.095902 27.392038 19.625230 -146.384798 38.774455 -106.053404 -0.802355 -0.267875 -9.069171 12.260346 -24.315030 -5.425000 7.125000 0.000000 0.000000 40.860200 -49.465600 -5.303500 
-1.750056 18.240298 5.410345 -8.090008 -9.244426 -4.740357 3.125793 4.969315 4.442232 -4.689693 -3.028066 -3.619821 1.564377 7.553330 25.618219 -1.371833 8.698712 -12.457202 9.156000 -16.907000 -56.627900 -1.578267 -4.076281 3.540157 2.809975 2.019801 -1.944063 0.066255 0.729475 1.444590 0.295902 -1.003891 6.158577 0.000000 0.000000 0.000000 5.534741 -0.505279 4.813082 16.016545 -5.086552 38.654256 -4.499141 -1.039245 -12.697516 -3.507214 -10.429103 -10.564222 15.913130 -20.496406 42.442141 4.019500 -6.893400 17.550500 3.433985 -5.472045 -1.239961 -62.362736 38.579273 74.706059 109.971031 -52.852938 -76.348865 -0.262143 1.346457 5.505289 10.321755 -56.805869 -9.101400 -7.125000 0.000000 0.000000 -15.861600 -26.799600 21.870000 -8.275232 5.993453 -0.072089 38.601977 28.300731 19.932981 -146.632827 38.714765 -106.183676 -0.818411 -0.314716 -9.024811 12.770902 -23.700594 -5.507200 7.125000 0.000000 0.000000 40.841700 -48.855800 -4.595200 
-1.721888 18.241181 5.408186 -8.131969 -9.157415 -4.650949 3.070300 4.975179 4.484150 -4.696894 -3.293485 -3.642193 1.541669 7.528250 25.524569 -1.351490 8.659241 -12.624126 9.096900 -16.869600 -56.424500 -1.623681 -4.084286 3.554436 2.797161 2.024751 -1.928989 0.066592 0.739205 1.447813 0.298651 -0.994318 6.162110 0.000000 0.000000 0.000000 5.551125 -0.409025 4.725014 15.376078 -4.856915 38.933337 -4.423780 -0.994701 -12.810657 -3.352617 -10.371406 -10.606929 15.931328 -20.464084 42.562538 4.036500 -6.868600 17.622800 3.471116 -5.391467 -1.259654 -61.955653 38.158019 74.959896 109.771830 -52.920118 -76.156756 -0.257757 1.346081 5.680026 10.691399 -57.110504 -9.448100 -7.125000 0.000000 0.000000 -15.803500 -27.138700 21.822400 -8.166719 5.876223 -0.102151 37.286333 28.991662 20.080912 -146.965731 38.590225 -106.356741 -0.867142 -0.366519 -9.552522 13.510547 -23.215161 -5.716900 7.125000 0.000000 0.000000 41.133000 -48.312400 -4.001100 
-1.693524 18.244027 5.406027 -8.047185 -9.068657 -4.584029 3.002600 4.972846 4.526347 -4.824484 -3.539294 -3.700231 1.529708 7.518498 25.489696 -1.322476 8.585937 -12.781880 9.027100 -16.825100 -56.183700 -1.676746 -4.100269 3.575499 2.784091 2.029480 -1.913029 0.066997 0.749065 1.450872 0.301520 -0.984742 6.165863 0.000000 0.000000 0.000000 5.442844 -0.245251 4.746117 14.695292 -4.531956 39.185193 -4.299455 -0.891532 -13.060086 -3.058482 -10.359453 -10.692161 15.792192 -20.501734 42.804037 3.958100 -6.869100 17.729500 3.499959 -5.303170 -1.281760 -61.453729 37.726017 75.345967 109.581465 -52.991451 -75.971816 -0.258741 1.348130 5.885715 11.346448 -57.379262 -10.044400 -7.125000 0.000000 0.000000 -15.633500 -27.491600 21.612700 -8.078098 5.784896 -0.123539 36.163602 29.460011 20.231556 -147.292812 38.458151 -106.524232 -0.922638 -0.424646 -10.064078 14.373866 -22.677248 -5.952500 7.125000 0.000000 0.000000 41.487900 -47.704800 -3.320400 
-1.656621 18.247855 5.401610 -7.928515 -8.983367 -4.654916 2.926553 4.970882 4.564158 -5.016865 -3.763749 -3.663049 1.525428 7.524994 25.506920 -1.326832 8.634601 -12.892220 9.026200 -16.824500 -56.180700 -1.740805 -4.114886 3.588750 2.770052 2.034621 -1.898530 0.067669 0.758815 1.454269 0.304172 -0.974924 6.168948 0.000000 0.000000 0.000000 5.392756 -0.133342 4.721279 13.899480 -4.261344 39.563724 -4.098369 -0.820611 -13.086175 -2.819256 -10.316339 -10.875389 15.583097 -20.445665 42.971914 3.872500 -6.842700 17.833700 3.555525 -5.228397 -1.285747 -61.225136 37.212177 75.444521 109.530342 -53.037934 -75.918010 -0.258673 1.349674 5.993283 11.637995 -57.636170 -10.325500 -7.125000 0.000000 0.000000 -15.596100 -27.776200 21.587700 -7.962023 5.676026 -0.161055 34.906017 30.086118 20.222590 -147.600070 38.347622 -106.657851 -1.004017 -0.480531 -10.657336 15.616055 -22.277197 -6.371400 7.125000 0.000000 0.000000 42.248600 -47.151400 -2.720800 
